<svg width="36" height="35" viewBox="0 0 36 35" fill="none" xmlns="http://www.w3.org/2000/svg">
<path fill-rule="evenodd" clip-rule="evenodd" d="M27.396 8H9.604C8.994 8 8.5 8.494 8.5 9.104V26.896C8.5 27.506 8.994 28 9.604 28H19.182V20.255H16.576V17.237H19.182V15.01C19.182 12.426 20.76 11.02 23.065 11.02C24.169 11.02 25.117 11.102 25.394 11.139V13.839H23.796C22.542 13.839 22.3 14.435 22.3 15.309V17.236H25.289L24.899 20.254H22.299V28H27.396C28.006 28 28.5 27.506 28.5 26.896V9.104C28.5 8.494 28.006 8 27.396 8Z" fill="#F5FFFE"/>
</svg>
