<svg width="36" height="35" viewBox="0 0 36 35" fill="none" xmlns="http://www.w3.org/2000/svg">
<path d="M18.5 15C17.7044 15 16.9413 15.3161 16.3787 15.8787C15.8161 16.4413 15.5 17.2044 15.5 18C15.5 18.7956 15.8161 19.5587 16.3787 20.1213C16.9413 20.6839 17.7044 21 18.5 21C19.2956 21 20.0587 20.6839 20.6213 20.1213C21.1839 19.5587 21.5 18.7956 21.5 18C21.5 17.2044 21.1839 16.4413 20.6213 15.8787C20.0587 15.3161 19.2956 15 18.5 15Z" fill="#F5FFFE"/>
<path fill-rule="evenodd" clip-rule="evenodd" d="M14.5 8C12.9087 8 11.3826 8.63214 10.2574 9.75736C9.13214 10.8826 8.5 12.4087 8.5 14V22C8.5 23.5913 9.13214 25.1174 10.2574 26.2426C11.3826 27.3679 12.9087 28 14.5 28H22.5C24.0913 28 25.6174 27.3679 26.7426 26.2426C27.8679 25.1174 28.5 23.5913 28.5 22V14C28.5 12.4087 27.8679 10.8826 26.7426 9.75736C25.6174 8.63214 24.0913 8 22.5 8H14.5ZM13.8333 18C13.8333 16.7623 14.325 15.5753 15.2002 14.7002C16.0753 13.825 17.2623 13.3333 18.5 13.3333C19.7377 13.3333 20.9247 13.825 21.7998 14.7002C22.675 15.5753 23.1667 16.7623 23.1667 18C23.1667 19.2377 22.675 20.4247 21.7998 21.2998C20.9247 22.175 19.7377 22.6667 18.5 22.6667C17.2623 22.6667 16.0753 22.175 15.2002 21.2998C14.325 20.4247 13.8333 19.2377 13.8333 18ZM23.1667 13.3333H24.5V12H23.1667V13.3333Z" fill="#F5FFFE"/>
</svg>
