<svg width="25" height="25" viewBox="0 0 25 25" fill="none" xmlns="http://www.w3.org/2000/svg">
<path d="M12.5 12.615L4.5 7.404V17.884C4.5 18.064 4.55767 18.2117 4.673 18.327C4.78833 18.4423 4.93567 18.5 5.115 18.5H13.5C13.5 18.6833 13.5057 18.851 13.517 19.003C13.529 19.155 13.559 19.3207 13.607 19.5H5.116C4.656 19.5 4.272 19.346 3.964 19.038C3.65467 18.7293 3.5 18.345 3.5 17.885V7.115C3.5 6.655 3.65433 6.271 3.963 5.963C4.271 5.65433 4.655 5.5 5.115 5.5H19.885C20.345 5.5 20.729 5.65433 21.037 5.963C21.3457 6.271 21.5 6.655 21.5 7.115V12.854C21.3667 12.794 21.2123 12.7427 21.037 12.7C20.8623 12.658 20.6833 12.618 20.5 12.58V7.405L12.5 12.616V12.615ZM12.5 11.5L20.192 6.5H4.808L12.5 11.5ZM19.5 22.5C18.386 22.5 17.4407 22.112 16.664 21.336C15.8873 20.56 15.4993 19.6147 15.5 18.5C15.5 17.386 15.888 16.4407 16.664 15.664C17.44 14.8873 18.3853 14.4993 19.5 14.5C20.614 14.5 21.5593 14.888 22.336 15.664C23.1127 16.44 23.5007 17.3853 23.5 18.5C23.5 19.614 23.112 20.5593 22.336 21.336C21.56 22.1127 20.6147 22.5007 19.5 22.5ZM17.154 18.885H21.846V18.115H17.154V18.885ZM4.5 18.5V14.115V14.173V6.5V18.5Z" fill="#F5FFFE"/>
</svg>
