<svg width="36" height="35" viewBox="0 0 36 35" fill="none" xmlns="http://www.w3.org/2000/svg">
<path d="M30.5 10.3165C29.6015 10.7139 28.6487 10.9751 27.6731 11.0912C28.701 10.4756 29.4701 9.50729 29.8371 8.3667C28.8717 8.94127 27.8132 9.34394 26.7111 9.56175C25.9701 8.76887 24.9879 8.24303 23.9171 8.06598C22.8464 7.88892 21.7472 8.07057 20.7903 8.5827C19.8335 9.09482 19.0727 9.90871 18.6261 10.8979C18.1796 11.887 18.0723 12.996 18.321 14.0523C16.363 13.9544 14.4474 13.4457 12.6987 12.5592C10.95 11.6728 9.40727 10.4285 8.17072 8.90712C7.73307 9.65883 7.50309 10.5134 7.50432 11.3832C7.50432 13.0904 8.37441 14.5986 9.69427 15.4817C8.9125 15.457 8.14794 15.2459 7.46429 14.8659V14.926C7.46425 16.0632 7.85757 17.1654 8.57755 18.0457C9.29752 18.9259 10.2998 19.5301 11.4144 19.7556C10.6887 19.9525 9.92774 19.9815 9.18917 19.8404C9.50344 20.8193 10.116 21.6753 10.9411 22.2887C11.7662 22.902 12.7625 23.2419 13.7904 23.2607C12.7689 24.0631 11.5992 24.6562 10.3482 25.0061C9.09725 25.356 7.78959 25.4559 6.5 25.3C8.75085 26.7474 11.371 27.5159 14.0471 27.5135C23.106 27.5135 28.0581 20.0099 28.0581 13.5025C28.0581 13.2906 28.0534 13.0763 28.044 12.8655C29.0075 12.1689 29.8392 11.305 30.5 10.3165Z" fill="#F5FFFE"/>
</svg>
