<svg width="128" height="95" viewBox="0 0 128 95" fill="none" xmlns="http://www.w3.org/2000/svg">
<g id="Vector" filter="url(#filter0_d_4665_58142)">
<path d="M48.755 3.9879C46.9766 5.75771 47.0724 8.62117 48.1258 10.8992C49.2261 13.2828 49.5666 15.9445 49.1015 18.5264C48.6364 21.1082 47.388 23.4865 45.5242 25.3413C43.6604 27.196 41.2706 28.4384 38.6761 28.9012C36.0816 29.3641 33.407 29.0252 31.0118 27.9302C28.7227 26.8865 25.8453 26.7867 24.0668 28.5565L21.3946 31.2157C20.5398 32.0667 20.0595 33.2208 20.0595 34.4241C20.0595 35.6274 20.5398 36.7814 21.3946 37.6324L69.6675 85.6713C70.5226 86.5221 71.6823 87 72.8915 87C74.1006 87 75.2603 86.5221 76.1154 85.6713L78.7876 83.0121C80.5661 81.2423 80.4703 78.3788 79.4169 76.1008C78.3166 73.7172 77.9761 71.0555 78.4412 68.4736C78.9063 65.8917 80.1547 63.5135 82.0185 61.6587C83.8823 59.804 86.2721 58.5616 88.8666 58.0988C91.461 57.6359 94.1357 57.9748 96.5309 59.0698C98.82 60.1135 101.697 60.2133 103.476 58.4435L106.148 55.7843C107.003 54.9333 107.483 53.7792 107.483 52.5759C107.483 51.3726 107.003 50.2186 106.148 49.3676L57.8752 1.32866C57.02 0.477917 55.8604 0 54.6512 0C53.442 0 52.2824 0.477917 51.4272 1.32866L48.755 3.9879Z" fill="#F5A42C" fill-opacity="0.54"/>
<path d="M12.0928 48.1105C11.6819 48.0841 11.2643 48.0644 10.8401 48.0512C10.4159 48.038 9.99172 48.0314 9.56752 48.0314C9.32892 48.0314 9.07705 48.038 8.81193 48.0512C8.56007 48.0644 8.3082 48.0709 8.05634 48.0709L7.9768 55.1351C9.06379 55.1088 10.1176 55.056 11.1384 54.9768C12.1723 54.8977 13.2659 54.7724 14.4192 54.6009V58.7365C13.6769 58.7101 12.9544 58.6903 12.2519 58.6771C11.5626 58.6639 10.8732 58.6573 10.1839 58.6573C9.14996 58.6573 8.12925 58.6705 7.12179 58.6969C6.11433 58.7365 5.07374 58.7893 4 58.8552C4.1193 56.4016 4.2121 53.9743 4.27838 51.5734C4.35791 49.1593 4.39768 46.7254 4.39768 44.2717C4.39768 41.9236 4.36454 39.5952 4.29826 37.2867C4.24524 34.9649 4.14582 32.63 4 30.2818C5.56421 30.4006 7.05551 30.4599 8.4739 30.4599C9.37531 30.4599 10.2701 30.4401 11.1582 30.4006C12.0597 30.3478 13.0207 30.2818 14.0414 30.2027V34.7539C13.2196 34.6087 12.4043 34.4966 11.5957 34.4175C10.8003 34.3383 10.005 34.2987 9.20961 34.2987H8.43413C8.30157 35.9477 8.20878 37.5901 8.15576 39.2259C8.11599 40.8616 8.08285 42.504 8.05634 44.153C8.40099 44.1794 8.74565 44.1926 9.09031 44.1926C9.44822 44.1926 9.81276 44.1926 10.1839 44.1926C10.4888 44.1926 10.8003 44.1926 11.1185 44.1926C11.4366 44.1926 11.7614 44.1794 12.0928 44.153V48.1105Z" fill="#F5FFFE"/>
<path d="M29.2726 30.6974C28.3181 35.4068 27.483 40.0899 26.7672 44.7466C26.0646 49.3901 25.4615 54.0666 24.9577 58.7761L18.9727 58.8552C18.5087 54.1062 17.9453 49.3901 17.2825 44.707C16.6197 40.024 15.8774 35.3277 15.0555 30.6182L20.0265 30.5391C20.2386 34.4966 20.517 38.408 20.8616 42.2732C21.2063 46.1384 21.5907 50.0167 22.0149 53.9083C22.5319 49.9772 22.9892 46.0592 23.3869 42.1544C23.7846 38.2365 24.1027 34.3053 24.3413 30.361L29.2726 30.6974Z" fill="#F5FFFE"/>
<path d="M43.8277 44.8456C43.8277 47.4971 43.6421 49.7463 43.2709 51.5931C42.913 53.44 42.4225 54.9439 41.7995 56.1047C41.1765 57.2524 40.4408 58.0901 39.5924 58.6178C38.744 59.1322 37.836 59.3895 36.8683 59.3895C35.9006 59.3895 34.9925 59.1454 34.1442 58.6573C33.2958 58.1561 32.5534 57.3382 31.9172 56.2037C31.2809 55.0692 30.7771 53.5719 30.406 51.7119C30.0481 49.8518 29.8691 47.5631 29.8691 44.8456C29.8691 42.1149 30.0481 39.7997 30.406 37.9001C30.7771 35.9873 31.2809 34.4373 31.9172 33.25C32.5534 32.0495 33.2958 31.1855 34.1442 30.6578C34.9925 30.1169 35.9006 29.8465 36.8683 29.8465C37.836 29.8465 38.744 30.1104 39.5924 30.638C40.4408 31.1525 41.1765 32.0034 41.7995 33.1906C42.4225 34.3779 42.913 35.9279 43.2709 37.8407C43.6421 39.7403 43.8277 42.0753 43.8277 44.8456ZM39.3935 44.8456C39.3935 42.7745 39.3273 41.0265 39.1947 39.6018C39.0621 38.1771 38.8766 37.0228 38.6379 36.139C38.4126 35.242 38.1475 34.5956 37.8426 34.1998C37.5377 33.804 37.2129 33.6062 36.8683 33.6062C36.5104 33.6062 36.1723 33.8106 35.8542 34.2196C35.5493 34.6153 35.2775 35.2617 35.0389 36.1588C34.8136 37.0426 34.6346 38.2035 34.5021 39.6414C34.3695 41.0661 34.3032 42.8008 34.3032 44.8456C34.3032 46.8771 34.3695 48.5854 34.5021 49.9706C34.6346 51.3425 34.8136 52.4506 35.0389 53.2949C35.2775 54.126 35.5493 54.7196 35.8542 55.0758C36.1723 55.432 36.5104 55.61 36.8683 55.61C37.2129 55.61 37.5377 55.4254 37.8426 55.056C38.1475 54.6734 38.4126 54.06 38.6379 53.2157C38.8766 52.3583 39.0621 51.2436 39.1947 49.8716C39.3273 48.4997 39.3935 46.8243 39.3935 44.8456Z" fill="#F5FFFE"/>
<path d="M56.3745 58.7365C55.6321 58.7101 54.9097 58.6903 54.2071 58.6771C53.5178 58.6639 52.8285 58.6573 52.1392 58.6573C51.1052 58.6573 50.0845 58.6705 49.0771 58.6969C48.0696 58.7365 47.029 58.7893 45.9553 58.8552C46.0746 56.4016 46.1674 53.9743 46.2336 51.5734C46.3132 49.1593 46.3529 46.7254 46.3529 44.2717C46.3529 41.9236 46.3198 39.5952 46.2535 37.2867C46.2005 34.9649 46.1011 32.63 45.9553 30.2818C46.0878 30.295 46.2403 30.3016 46.4126 30.3016C46.5584 30.3148 46.7374 30.3214 46.9495 30.3214C47.1616 30.3214 47.4002 30.3214 47.6653 30.3214C48.0895 30.3214 48.5468 30.3148 49.0373 30.3016C49.541 30.2752 50.0447 30.2423 50.5485 30.2027C50.3761 32.1023 50.2502 34.1009 50.1707 36.1984C50.1044 38.2958 50.058 40.4197 50.0315 42.57C50.0182 44.707 50.005 46.8441 49.9917 48.9812C49.9917 51.1051 49.9718 53.1564 49.9321 55.1351C51.0191 55.1088 52.0729 55.056 53.0936 54.9768C54.1276 54.8977 55.2212 54.7724 56.3745 54.6009V58.7365Z" fill="#F5FFFE"/>
<path d="M69.2394 30.0444C69.5443 32.7355 69.7564 35.4596 69.8757 38.2167C69.995 40.9606 70.0547 43.8298 70.0547 46.8243C70.0547 47.8401 70.0083 48.8493 69.9155 49.8518C69.836 50.8412 69.6901 51.791 69.4781 52.7013C69.2792 53.5983 69.0075 54.436 68.6628 55.2143C68.3314 55.9794 67.9138 56.6456 67.4101 57.2128C66.9064 57.7669 66.3099 58.2088 65.6205 58.5386C64.9312 58.8552 64.1425 59.0135 63.2544 59.0135C62.459 59.0135 61.7631 58.8684 61.1665 58.5782C60.57 58.2748 60.0597 57.8658 59.6355 57.3514C59.2113 56.8237 58.8534 56.2103 58.5617 55.5111C58.2833 54.7987 58.0646 54.0336 57.9056 53.2157C57.7465 52.3847 57.6338 51.5206 57.5675 50.6236C57.5012 49.7265 57.4681 48.8229 57.4681 47.9126C57.4681 45.1688 57.5808 42.3919 57.8061 39.582C58.0315 36.759 58.2966 33.837 58.6015 30.8161L62.7573 30.8953C62.5186 33.7315 62.2933 36.5941 62.0812 39.4831C61.8824 42.3721 61.7829 45.3468 61.7829 48.4073C61.7829 49.2912 61.8094 50.1289 61.8625 50.9204C61.9155 51.7119 62.0083 52.411 62.1408 53.0179C62.2734 53.6115 62.4391 54.0864 62.6379 54.4426C62.85 54.7987 63.1085 54.9768 63.4134 54.9768C63.7713 54.9768 64.0961 54.6998 64.3877 54.1458C64.6926 53.5785 64.9445 52.8398 65.1433 51.9295C65.3554 51.0061 65.5211 49.9574 65.6404 48.7833C65.7597 47.6092 65.8194 46.4154 65.8194 45.2017C65.8194 44.0409 65.8061 42.8734 65.7796 41.6993C65.7664 40.5253 65.7399 39.338 65.7001 38.1375C65.6603 36.9239 65.6073 35.6905 65.541 34.4373C65.4747 33.1708 65.3886 31.8583 65.2825 30.4995L69.2394 30.0444Z" fill="#F5FFFE"/>
<path d="M82.5617 34.4175C82.1375 34.3911 81.6471 34.3713 81.0903 34.3581C80.5468 34.3449 79.9635 34.3383 79.3405 34.3383C79.2477 35.5651 79.1682 36.8382 79.1019 38.1573C79.0489 39.4633 79.0025 40.7957 78.9627 42.1544C78.923 43.5 78.8964 44.8587 78.8832 46.2307C78.8699 47.5894 78.8633 48.935 78.8633 50.2674C78.8633 51.7844 78.8699 53.2553 78.8832 54.68C78.9097 56.0915 78.9561 57.4569 79.0224 58.7761H74.7871C74.9064 56.5335 74.9992 54.1458 75.0655 51.6129C75.1317 49.0801 75.1649 46.5275 75.1649 43.9551C75.1649 42.2798 75.145 40.644 75.1052 39.0478C75.0655 37.4516 75.0257 35.8949 74.9859 34.3779C74.3496 34.3779 73.7465 34.3845 73.1765 34.3977C72.6065 34.4109 72.0961 34.4307 71.6454 34.457L71.6852 30.3214C72.1624 30.361 72.6993 30.394 73.2958 30.4204C73.8923 30.4335 74.5153 30.4467 75.1649 30.4599C75.8277 30.4731 76.5037 30.4863 77.193 30.4995C77.8824 30.4995 78.5584 30.4995 79.2212 30.4995C79.884 30.4995 80.507 30.4995 81.0903 30.4995C81.6868 30.4995 82.2171 30.4863 82.681 30.4599L82.5617 34.4175Z" fill="#F5FFFE"/>
<path d="M92.1458 58.4199C91.6156 58.3935 91.0853 58.3737 90.5551 58.3605C90.0249 58.3473 89.4946 58.3407 88.9644 58.3407C88.0895 58.3407 87.2146 58.3605 86.3397 58.4001C85.4648 58.4265 84.5899 58.4727 83.715 58.5386L83.7548 54.2843C84.0597 54.3238 84.3645 54.3568 84.6694 54.3832C84.9743 54.3964 85.2792 54.4162 85.5841 54.4426C85.6636 52.3978 85.7365 50.3663 85.8028 48.348C85.8824 46.3164 85.9221 44.2849 85.9221 42.2534C85.9221 40.8946 85.9022 39.5557 85.8625 38.2365C85.8227 36.9041 85.7829 35.5651 85.7432 34.2196C85.3985 34.2196 85.0472 34.2262 84.6893 34.2394C84.3314 34.2526 83.9669 34.2724 83.5957 34.2987L83.6355 30.1631C84.6562 30.2291 85.6769 30.2818 86.6976 30.3214C87.7183 30.3478 88.7457 30.361 89.7796 30.361C90.1508 30.361 90.522 30.361 90.8931 30.361C91.2643 30.361 91.6421 30.3478 92.0265 30.3214L91.9072 34.2592C91.6023 34.2592 91.2974 34.2526 90.9925 34.2394C90.7009 34.2262 90.4027 34.2196 90.0978 34.2196C89.9122 36.5941 89.7796 38.9554 89.7001 41.3036C89.6206 43.6385 89.5808 45.9932 89.5808 48.3678C89.5808 50.4389 89.6206 52.5034 89.7001 54.5613C90.1243 54.5613 90.5551 54.5547 90.9925 54.5415C91.4433 54.5283 91.894 54.5085 92.3447 54.4821L92.1458 58.4199Z" fill="#F5FFFE"/>
<path d="M107.457 44.8456C107.457 47.4971 107.271 49.7463 106.9 51.5931C106.542 53.44 106.051 54.9439 105.428 56.1047C104.805 57.2524 104.07 58.0901 103.221 58.6178C102.373 59.1322 101.465 59.3895 100.497 59.3895C99.5294 59.3895 98.6214 59.1454 97.773 58.6573C96.9246 58.1561 96.1823 57.3382 95.546 56.2037C94.9097 55.0692 94.406 53.5719 94.0348 51.7119C93.6769 49.8518 93.4979 47.5631 93.4979 44.8456C93.4979 42.1149 93.6769 39.7997 94.0348 37.9001C94.406 35.9873 94.9097 34.4373 95.546 33.25C96.1823 32.0495 96.9246 31.1855 97.773 30.6578C98.6214 30.1169 99.5294 29.8465 100.497 29.8465C101.465 29.8465 102.373 30.1104 103.221 30.638C104.07 31.1525 104.805 32.0034 105.428 33.1906C106.051 34.3779 106.542 35.9279 106.9 37.8407C107.271 39.7403 107.457 42.0753 107.457 44.8456ZM103.022 44.8456C103.022 42.7745 102.956 41.0265 102.824 39.6018C102.691 38.1771 102.505 37.0228 102.267 36.139C102.041 35.242 101.776 34.5956 101.471 34.1998C101.167 33.804 100.842 33.6062 100.497 33.6062C100.139 33.6062 99.8012 33.8106 99.483 34.2196C99.1781 34.6153 98.9064 35.2617 98.6678 36.1588C98.4424 37.0426 98.2635 38.2035 98.1309 39.6414C97.9983 41.0661 97.9321 42.8008 97.9321 44.8456C97.9321 46.8771 97.9983 48.5854 98.1309 49.9706C98.2635 51.3425 98.4424 52.4506 98.6678 53.2949C98.9064 54.126 99.1781 54.7196 99.483 55.0758C99.8012 55.432 100.139 55.61 100.497 55.61C100.842 55.61 101.167 55.4254 101.471 55.056C101.776 54.6734 102.041 54.06 102.267 53.2157C102.505 52.3583 102.691 51.2436 102.824 49.8716C102.956 48.4997 103.022 46.8243 103.022 44.8456Z" fill="#F5FFFE"/>
<path d="M124 30.1631C123.828 32.8147 123.695 35.4464 123.602 38.0584C123.51 40.6572 123.463 43.2691 123.463 45.8943C123.463 47.939 123.49 49.9574 123.543 51.9493C123.609 53.9413 123.715 55.9464 123.861 57.9648L119.844 57.846C119.314 56.1311 118.79 54.4294 118.273 52.7408C117.77 51.0391 117.266 49.3505 116.762 47.6752C116.258 45.9998 115.742 44.3311 115.211 42.6689C114.694 41.0068 114.157 39.3512 113.601 37.7022C113.64 41.1453 113.7 44.5817 113.78 48.0116C113.872 51.4283 114.031 54.8383 114.257 58.2418L109.664 58.2022C109.823 53.9941 109.902 49.7661 109.902 45.5183C109.902 42.9064 109.876 40.3208 109.823 37.7616C109.77 35.2024 109.69 32.63 109.584 30.0444L115.152 30.1631C115.828 33.0653 116.55 36.0137 117.319 39.0082C118.088 42.0027 118.903 44.9577 119.765 47.8731C119.672 44.8917 119.533 41.9104 119.347 38.9291C119.175 35.9345 118.983 32.9994 118.771 30.1235L124 30.1631Z" fill="#F5FFFE"/>
</g>
<defs>
<filter id="filter0_d_4665_58142" x="0" y="0" width="128" height="95" filterUnits="userSpaceOnUse" color-interpolation-filters="sRGB">
<feFlood flood-opacity="0" result="BackgroundImageFix"/>
<feColorMatrix in="SourceAlpha" type="matrix" values="0 0 0 0 0 0 0 0 0 0 0 0 0 0 0 0 0 0 127 0" result="hardAlpha"/>
<feOffset dy="4"/>
<feGaussianBlur stdDeviation="2"/>
<feComposite in2="hardAlpha" operator="out"/>
<feColorMatrix type="matrix" values="0 0 0 0 0 0 0 0 0 0 0 0 0 0 0 0 0 0 0.25 0"/>
<feBlend mode="normal" in2="BackgroundImageFix" result="effect1_dropShadow_4665_58142"/>
<feBlend mode="normal" in="SourceGraphic" in2="effect1_dropShadow_4665_58142" result="shape"/>
</filter>
</defs>
</svg>
